<svg width="38" height="20" viewBox="0 0 38 20" fill="none" xmlns="http://www.w3.org/2000/svg">
<g clip-path="url(#clip0_324_139)">
<path d="M0.862793 10.3041C0.862793 5.23869 4.96915 1.13232 10.0346 1.13232H28.3782C33.4437 1.13232 37.5501 5.23869 37.5501 10.3041C37.5501 15.3696 33.4437 19.476 28.3782 19.476H10.0346C4.96915 19.476 0.862793 15.3696 0.862793 10.3041Z" fill="#0EFF36"/>
<path d="M36.0214 10.3043C36.0214 14.5256 32.5995 17.9475 28.3782 17.9475C24.157 17.9475 20.7351 14.5256 20.7351 10.3043C20.7351 6.0831 24.157 2.66113 28.3782 2.66113C32.5995 2.66113 36.0214 6.0831 36.0214 10.3043Z" fill="white"/>
</g>
<defs>
<clipPath id="clip0_324_139">
<rect width="37" height="19" fill="white" transform="translate(0.72998 0.5)"/>
</clipPath>
</defs>
</svg>
